<svg width="14665" height="4458" viewBox="0 0 14665 4458" fill="none" xmlns="http://www.w3.org/2000/svg">
<path d="M4052 2026C4052 3144.93 3144.93 4052 2026 4052C907.071 4052 0 3144.93 0 2026C0 907.071 907.071 0 2026 0C3144.93 0 4052 907.071 4052 2026ZM297.489 2026C297.489 2980.63 1071.37 3754.51 2026 3754.51C2980.63 3754.51 3754.51 2980.63 3754.51 2026C3754.51 1071.37 2980.63 297.489 2026 297.489C1071.37 297.489 297.489 1071.37 297.489 2026Z" fill="url(#paint0_linear_8_16)"/>
<path d="M4052 2026C4052 3144.93 3144.93 4052 2026 4052C907.071 4052 0 3144.93 0 2026C0 907.071 907.071 0 2026 0C3144.93 0 4052 907.071 4052 2026ZM297.489 2026C297.489 2980.63 1071.37 3754.51 2026 3754.51C2980.63 3754.51 3754.51 2980.63 3754.51 2026C3754.51 1071.37 2980.63 297.489 2026 297.489C1071.37 297.489 297.489 1071.37 297.489 2026Z" fill="url(#paint1_linear_8_16)"/>
<path d="M1970.13 822.832C1989.78 771.365 2062.59 771.364 2082.24 822.832L2876.26 2902.75C2895.63 2953.5 2842.98 3001.82 2794.08 2978.16L2052.31 2619.34C2035.81 2611.36 2016.56 2611.36 2000.06 2619.34L1258.29 2978.16C1209.39 3001.82 1156.73 2953.5 1176.11 2902.75L1970.13 822.832Z" fill="url(#paint2_linear_8_16)"/>
<path d="M1970.13 822.832C1989.78 771.365 2062.59 771.364 2082.24 822.832L2876.26 2902.75C2895.63 2953.5 2842.98 3001.82 2794.08 2978.16L2052.31 2619.34C2035.81 2611.36 2016.56 2611.36 2000.06 2619.34L1258.29 2978.16C1209.39 3001.82 1156.73 2953.5 1176.11 2902.75L1970.13 822.832Z" fill="url(#paint3_linear_8_16)"/>
<path d="M2026.18 1478L2404.68 2471L2026.18 2287.62L1647.68 2471L2026.18 1478Z" fill="#040B22"/>
<path d="M2026.18 1478L2404.68 2471L2026.18 2287.62L1647.68 2471L2026.18 1478Z" fill="#040B22"/>
<path d="M5728.62 3378.5C5590.29 3378.5 5465.29 3355.17 5353.62 3308.5C5241.95 3260.17 5146.12 3194.33 5066.12 3111C4987.79 3027.67 4926.95 2931 4883.62 2821C4840.29 2711 4818.62 2593.5 4818.62 2468.5C4818.62 2345.17 4840.29 2228.5 4883.62 2118.5C4926.95 2008.5 4987.79 1911.83 5066.12 1828.5C5146.12 1745.17 5241.95 1680.17 5353.62 1633.5C5465.29 1586.83 5590.29 1563.5 5728.62 1563.5C5866.95 1563.5 5991.95 1586.83 6103.62 1633.5C6215.29 1680.17 6310.29 1745.17 6388.62 1828.5C6468.62 1911.83 6530.29 2008.5 6573.62 2118.5C6616.95 2228.5 6638.62 2346 6638.62 2471C6638.62 2594.33 6616.95 2711 6573.62 2821C6530.29 2931 6468.62 3027.67 6388.62 3111C6310.29 3194.33 6215.29 3260.17 6103.62 3308.5C5991.95 3355.17 5866.95 3378.5 5728.62 3378.5ZM5728.62 3166C5823.62 3166 5911.95 3148.5 5993.62 3113.5C6075.29 3078.5 6146.12 3029.33 6206.12 2966C6267.79 2902.67 6315.29 2829.33 6348.62 2746C6381.95 2661 6398.62 2568.5 6398.62 2468.5C6398.62 2370.17 6381.95 2278.5 6348.62 2193.5C6315.29 2108.5 6268.62 2035.17 6208.62 1973.5C6148.62 1910.17 6076.95 1861.83 5993.62 1828.5C5911.95 1793.5 5823.62 1776 5728.62 1776C5631.95 1776 5542.79 1793.5 5461.12 1828.5C5379.45 1861.83 5308.62 1910.17 5248.62 1973.5C5188.62 2035.17 5141.95 2108.5 5108.62 2193.5C5075.29 2278.5 5058.62 2371 5058.62 2471C5058.62 2569.33 5075.29 2661 5108.62 2746C5141.95 2829.33 5188.62 2902.67 5248.62 2966C5308.62 3029.33 5379.45 3078.5 5461.12 3113.5C5542.79 3148.5 5631.95 3166 5728.62 3166ZM6924.93 3346V2608.5C6924.93 2495.17 6949.93 2396 6999.93 2311C7051.6 2226 7122.43 2160.17 7212.43 2113.5C7302.43 2065.17 7404.93 2041 7519.93 2041C7636.6 2041 7739.1 2065.17 7827.43 2113.5C7917.43 2160.17 7987.43 2226 8037.43 2311C8089.1 2396 8114.93 2495.17 8114.93 2608.5V3346H7884.93V2611C7884.93 2534.33 7867.43 2468.5 7832.43 2413.5C7799.1 2356.83 7754.1 2313.5 7697.43 2283.5C7642.43 2253.5 7583.26 2238.5 7519.93 2238.5C7456.6 2238.5 7396.6 2253.5 7339.93 2283.5C7284.93 2313.5 7239.93 2356.83 7204.93 2413.5C7171.6 2468.5 7154.93 2534.33 7154.93 2611V3346H6924.93ZM9127.61 3346C8987.61 3346 8863.44 3320.17 8755.11 3268.5C8646.77 3215.17 8561.77 3141 8500.11 3046C8440.11 2949.33 8410.11 2836.83 8410.11 2708.5C8410.11 2581.83 8435.94 2468.5 8487.61 2368.5C8539.27 2266.83 8610.94 2186.83 8702.61 2128.5C8794.27 2070.17 8900.94 2041 9022.61 2041C9154.27 2041 9263.44 2069.33 9350.11 2126C9438.44 2182.67 9504.27 2259.33 9547.61 2356C9590.94 2451 9612.61 2557.67 9612.61 2676C9612.61 2694.33 9611.77 2713.5 9610.11 2733.5C9610.11 2753.5 9608.44 2771 9605.11 2786H8655.11C8663.44 2864.33 8689.27 2931 8732.61 2986C8775.94 3039.33 8830.94 3080.17 8897.61 3108.5C8965.94 3135.17 9040.94 3148.5 9122.61 3148.5H9455.11V3346H9127.61ZM8652.61 2623.5H9380.11C9380.11 2591.83 9376.77 2558.5 9370.11 2523.5C9363.44 2486.83 9351.77 2451.83 9335.11 2418.5C9318.44 2383.5 9295.94 2352.67 9267.61 2326C9240.94 2297.67 9206.77 2275.17 9165.11 2258.5C9125.11 2241.83 9077.61 2233.5 9022.61 2233.5C8964.27 2233.5 8912.61 2245.17 8867.61 2268.5C8824.27 2290.17 8786.77 2320.17 8755.11 2358.5C8723.44 2395.17 8699.27 2436.83 8682.61 2483.5C8665.94 2530.17 8655.94 2576.83 8652.61 2623.5ZM9728.39 3346L10323.4 1763.5C10350.1 1695.17 10386.7 1645.17 10433.4 1613.5C10480.1 1581.83 10534.2 1566 10595.9 1566C10657.6 1566 10711.7 1581.83 10758.4 1613.5C10806.7 1643.5 10843.4 1692.67 10868.4 1761L11465.9 3346H11203.4L11050.9 2923.5H10135.9L9980.89 3346H9728.39ZM10210.9 2711H10978.4L10665.9 1843.5C10657.6 1821.83 10648.4 1805.17 10638.4 1793.5C10628.4 1781.83 10614.2 1776 10595.9 1776C10579.2 1776 10565.9 1781.83 10555.9 1793.5C10545.9 1805.17 10537.6 1821.83 10530.9 1843.5L10210.9 2711ZM12298.9 2041C12395.6 2041 12483.9 2056.83 12563.9 2088.5C12643.9 2118.5 12713.1 2163.5 12771.4 2223.5C12829.8 2283.5 12874.8 2356 12906.4 2441C12939.8 2524.33 12956.4 2618.5 12956.4 2723.5C12956.4 2855.17 12928.9 2970.17 12873.9 3068.5C12820.6 3166.83 12747.3 3242.67 12653.9 3296C12560.6 3349.33 12454.8 3376 12336.4 3376C12271.4 3376 12208.9 3365.17 12148.9 3343.5C12090.6 3321.83 12038.1 3291.83 11991.4 3253.5C11946.4 3213.5 11909.8 3168.5 11881.4 3118.5H11876.4V3896H11646.4V2716C11646.4 2572.67 11674.8 2451 11731.4 2351C11789.8 2251 11868.1 2174.33 11966.4 2121C12064.8 2067.67 12175.6 2041 12298.9 2041ZM12298.9 2238.5C12222.3 2238.5 12151.4 2257.67 12086.4 2296C12023.1 2334.33 11972.3 2388.5 11933.9 2458.5C11897.3 2528.5 11878.9 2611 11878.9 2706C11878.9 2802.67 11897.3 2886.83 11933.9 2958.5C11972.3 3028.5 12023.1 3082.67 12086.4 3121C12151.4 3159.33 12223.1 3178.5 12301.4 3178.5C12381.4 3178.5 12453.1 3158.5 12516.4 3118.5C12579.8 3078.5 12629.8 3023.5 12666.4 2953.5C12704.8 2883.5 12723.9 2801.83 12723.9 2708.5C12723.9 2611.83 12704.8 2528.5 12666.4 2458.5C12628.1 2388.5 12576.4 2334.33 12511.4 2296C12448.1 2257.67 12377.3 2238.5 12298.9 2238.5ZM13895.6 2041C13992.3 2041 14080.6 2056.83 14160.6 2088.5C14240.6 2118.5 14309.8 2163.5 14368.1 2223.5C14426.4 2283.5 14471.4 2356 14503.1 2441C14536.4 2524.33 14553.1 2618.5 14553.1 2723.5C14553.1 2855.17 14525.6 2970.17 14470.6 3068.5C14417.3 3166.83 14343.9 3242.67 14250.6 3296C14157.3 3349.33 14051.4 3376 13933.1 3376C13868.1 3376 13805.6 3365.17 13745.6 3343.5C13687.3 3321.83 13634.8 3291.83 13588.1 3253.5C13543.1 3213.5 13506.4 3168.5 13478.1 3118.5H13473.1V3896H13243.1V2716C13243.1 2572.67 13271.4 2451 13328.1 2351C13386.4 2251 13464.8 2174.33 13563.1 2121C13661.4 2067.67 13772.3 2041 13895.6 2041ZM13895.6 2238.5C13818.9 2238.5 13748.1 2257.67 13683.1 2296C13619.8 2334.33 13568.9 2388.5 13530.6 2458.5C13493.9 2528.5 13475.6 2611 13475.6 2706C13475.6 2802.67 13493.9 2886.83 13530.6 2958.5C13568.9 3028.5 13619.8 3082.67 13683.1 3121C13748.1 3159.33 13819.8 3178.5 13898.1 3178.5C13978.1 3178.5 14049.8 3158.5 14113.1 3118.5C14176.4 3078.5 14226.4 3023.5 14263.1 2953.5C14301.4 2883.5 14320.6 2801.83 14320.6 2708.5C14320.6 2611.83 14301.4 2528.5 14263.1 2458.5C14224.8 2388.5 14173.1 2334.33 14108.1 2296C14044.8 2257.67 13973.9 2238.5 13895.6 2238.5Z" fill="url(#paint4_linear_8_16)"/>
<defs>
<linearGradient id="paint0_linear_8_16" x1="2026" y1="0" x2="2026" y2="4052" gradientUnits="userSpaceOnUse">
<stop offset="1" stop-color="#FF8000"/>
</linearGradient>
<linearGradient id="paint1_linear_8_16" x1="2026" y1="0" x2="2026" y2="4052" gradientUnits="userSpaceOnUse">
<stop offset="1" stop-color="#FF8000"/>
</linearGradient>
<linearGradient id="paint2_linear_8_16" x1="2026.18" y1="676" x2="2026.18" y2="3044" gradientUnits="userSpaceOnUse">
<stop offset="0.407959" stop-color="#FFDCBD"/>
<stop offset="1" stop-color="#998471"/>
</linearGradient>
<linearGradient id="paint3_linear_8_16" x1="2026.18" y1="676" x2="2026.18" y2="3044" gradientUnits="userSpaceOnUse">
<stop offset="0.407959" stop-color="#FFDCBD"/>
<stop offset="1" stop-color="#998471"/>
</linearGradient>
<linearGradient id="paint4_linear_8_16" x1="10421" y1="1542" x2="10371" y2="3346" gradientUnits="userSpaceOnUse">
<stop offset="0.40733" stop-color="#FFDCBD"/>
<stop offset="1" stop-color="#998471"/>
</linearGradient>
</defs>
</svg>
